<svg width="28" height="28" viewBox="0 0 28 28" fill="none" xmlns="http://www.w3.org/2000/svg">
<path d="M20.0004 0H7.99956C3.58152 0 0 3.58152 0 7.99956V20.0004C0 24.4185 3.58152 28 7.99956 28H20.0004C24.4185 28 28 24.4185 28 20.0004V7.99956C28 3.58152 24.4185 0 20.0004 0Z" fill="white"/>
<path d="M11.9992 18.7643V6L14.8948 7.44621C15.2267 7.61274 15.5058 7.86829 15.7008 8.18431C15.8959 8.50033 15.9992 8.86436 15.9992 9.23573V22L13.1037 20.5538C12.7716 20.3874 12.4925 20.1319 12.2974 19.8158C12.1023 19.4998 11.9991 19.1357 11.9992 18.7643ZM10 13.2357C9.9997 12.8644 9.89609 12.5005 9.70076 12.1848C9.50543 11.869 9.22608 11.6138 8.89398 11.4478L6 10V18.7643C5.99969 19.1357 6.10285 19.4999 6.29794 19.816C6.49302 20.1321 6.7723 20.3875 7.10447 20.5538L10 22V13.2357ZM22 22V15.2365C22.0003 14.8651 21.8971 14.5009 21.7021 14.1848C21.507 13.8687 21.2277 13.6132 20.8955 13.447L18 11.9992V18.7643C18 19.1358 18.1035 19.5001 18.2988 19.8161C18.4942 20.1322 18.7737 20.3876 19.106 20.5538L22 22Z" fill="#E8121F"/>
</svg>
