<svg width="301" height="59" viewBox="0 0 301 59" fill="none" xmlns="http://www.w3.org/2000/svg">
<g clip-path="url(#clip0_73_11708)">
<path d="M40.7109 0H16.2831C7.29019 0 0 7.49719 0 16.7454V41.8669C0 51.1151 7.29019 58.6123 16.2831 58.6123H40.7109C49.7038 58.6123 56.994 51.1151 56.994 41.8669V16.7454C56.994 7.49719 49.7038 0 40.7109 0Z" fill="#E8121F"/>
<path d="M24.4246 39.2785V12.5605L30.3181 15.5877C30.9937 15.9363 31.5618 16.4712 31.9588 17.1327C32.3558 17.7942 32.5661 18.5562 32.5661 19.3335V46.0514L26.6726 43.0243C25.9968 42.676 25.4285 42.1411 25.0315 41.4796C24.6345 40.818 24.4243 40.0559 24.4246 39.2785ZM20.3554 27.7062C20.3548 26.929 20.1439 26.1673 19.7463 25.5064C19.3488 24.8454 18.7802 24.3113 18.1042 23.9637L12.2139 20.9333V39.2785C12.2132 40.056 12.4232 40.8183 12.8203 41.4799C13.2174 42.1415 13.7858 42.6763 14.4619 43.0243L20.3554 46.0514V27.7062ZM44.78 46.0514V31.8942C44.7807 31.1167 44.5707 30.3544 44.1736 29.6928C43.7766 29.0312 43.2081 28.4964 42.532 28.1484L36.6385 25.118V39.2785C36.6385 40.0562 36.8491 40.8186 37.2467 41.4802C37.6443 42.1418 38.2132 42.6764 38.8897 43.0243L44.78 46.0514Z" fill="white"/>
<path d="M77.4793 41.1805V20.6578H82.1023V24.1451H82.3428C82.7703 22.9693 83.4785 22.0518 84.4672 21.3927C85.4559 20.7246 86.6362 20.3906 88.0079 20.3906C89.3975 20.3906 90.5688 20.7291 91.5219 21.406C92.4839 22.0741 93.1609 22.9871 93.5528 24.1451H93.7666C94.2208 23.0049 94.9869 22.0964 96.0647 21.4194C97.1514 20.7335 98.4385 20.3906 99.9261 20.3906C101.814 20.3906 103.355 20.9874 104.549 22.181C105.743 23.3746 106.339 25.116 106.339 27.4052V41.1805H101.489V28.1534C101.489 26.8797 101.151 25.9488 100.474 25.3609C99.7969 24.7641 98.9685 24.4657 97.9887 24.4657C96.8218 24.4657 95.9088 24.8309 95.2496 25.5614C94.5994 26.2829 94.2743 27.2226 94.2743 28.3806V41.1805H89.5311V27.953C89.5311 26.893 89.2104 26.0468 88.5691 25.4144C87.9366 24.782 87.1083 24.4657 86.0839 24.4657C85.3891 24.4657 84.7567 24.6439 84.1866 25.0002C83.6165 25.3476 83.1623 25.8419 82.8238 26.4833C82.4853 27.1157 82.3161 27.855 82.3161 28.7012V41.1805H77.4793ZM111.246 41.1805V20.6578H116.083V41.1805H111.246ZM113.678 17.7451C112.912 17.7451 112.253 17.4912 111.701 16.9835C111.148 16.4669 110.872 15.8478 110.872 15.1263C110.872 14.3959 111.148 13.7768 111.701 13.2691C112.253 12.7525 112.912 12.4941 113.678 12.4941C114.453 12.4941 115.112 12.7525 115.655 13.2691C116.208 13.7768 116.484 14.3959 116.484 15.1263C116.484 15.8478 116.208 16.4669 115.655 16.9835C115.112 17.4912 114.453 17.7451 113.678 17.7451ZM125.893 13.8169V41.1805H121.057V13.8169H125.893ZM135.704 13.8169V41.1805H130.867V13.8169H135.704ZM140.678 41.1805V20.6578H145.514V41.1805H140.678ZM143.109 17.7451C142.343 17.7451 141.684 17.4912 141.132 16.9835C140.58 16.4669 140.303 15.8478 140.303 15.1263C140.303 14.3959 140.58 13.7768 141.132 13.2691C141.684 12.7525 142.343 12.4941 143.109 12.4941C143.884 12.4941 144.543 12.7525 145.087 13.2691C145.639 13.7768 145.915 14.3959 145.915 15.1263C145.915 15.8478 145.639 16.4669 145.087 16.9835C144.543 17.4912 143.884 17.7451 143.109 17.7451ZM164.23 34.7405L164.217 28.9016H164.992L172.367 20.6578H178.019L168.946 30.7588H167.944L164.23 34.7405ZM159.821 41.1805V13.8169H164.657V41.1805H159.821ZM172.701 41.1805L166.02 31.8411L169.28 28.434L178.486 41.1805H172.701ZM187.148 41.5947C185.847 41.5947 184.676 41.3631 183.634 40.9C182.6 40.4279 181.781 39.7331 181.175 38.8156C180.578 37.8982 180.28 36.7669 180.28 35.4219C180.28 34.2639 180.494 33.3064 180.921 32.5492C181.349 31.7921 181.932 31.1864 182.672 30.7321C183.411 30.2778 184.244 29.9349 185.17 29.7033C186.105 29.4628 187.072 29.2891 188.07 29.1822C189.272 29.0575 190.247 28.9462 190.996 28.8482C191.744 28.7413 192.287 28.581 192.626 28.3672C192.973 28.1445 193.147 27.8016 193.147 27.3384V27.2582C193.147 26.2517 192.848 25.4723 192.252 24.92C191.655 24.3678 190.795 24.0916 189.673 24.0916C188.488 24.0916 187.548 24.3499 186.854 24.8666C186.168 25.3832 185.705 25.9934 185.464 26.6971L180.948 26.0557C181.304 24.8087 181.892 23.7665 182.712 22.9292C183.531 22.083 184.533 21.4506 185.718 21.0319C186.903 20.6044 188.212 20.3906 189.646 20.3906C190.635 20.3906 191.619 20.5064 192.599 20.738C193.579 20.9696 194.474 21.3526 195.285 21.887C196.095 22.4126 196.745 23.1296 197.235 24.0382C197.734 24.9467 197.984 26.0824 197.984 27.4453V41.1805H193.334V38.3613H193.174C192.88 38.9314 192.465 39.4659 191.931 39.9647C191.405 40.4546 190.742 40.851 189.94 41.1538C189.147 41.4478 188.217 41.5947 187.148 41.5947ZM188.404 38.0407C189.375 38.0407 190.216 37.8492 190.929 37.4661C191.641 37.0742 192.189 36.5576 192.572 35.9162C192.964 35.2749 193.16 34.5757 193.16 33.8185V31.4002C193.009 31.5249 192.75 31.6407 192.385 31.7476C192.029 31.8545 191.628 31.948 191.183 32.0282C190.737 32.1083 190.296 32.1796 189.86 32.2419C189.423 32.3043 189.045 32.3577 188.724 32.4023C188.003 32.5002 187.357 32.6606 186.787 32.8833C186.217 33.106 185.767 33.4177 185.437 33.8185C185.108 34.2105 184.943 34.7182 184.943 35.3417C184.943 36.2325 185.268 36.905 185.918 37.3593C186.569 37.8135 187.397 38.0407 188.404 38.0407ZM219.067 26.0824L214.658 26.5634C214.534 26.1181 214.315 25.6994 214.004 25.3075C213.701 24.9156 213.291 24.5994 212.774 24.3589C212.258 24.1184 211.625 23.9981 210.877 23.9981C209.871 23.9981 209.024 24.2163 208.338 24.6528C207.661 25.0893 207.327 25.6549 207.336 26.3497C207.327 26.9465 207.546 27.4319 207.991 27.806C208.445 28.1801 209.194 28.4874 210.236 28.7279L213.736 29.4762C215.678 29.8948 217.121 30.5584 218.065 31.467C219.018 32.3755 219.499 33.5647 219.508 35.0344C219.499 36.326 219.121 37.4661 218.373 38.4549C217.633 39.4347 216.605 40.2007 215.286 40.753C213.968 41.3052 212.454 41.5814 210.743 41.5814C208.232 41.5814 206.21 41.0558 204.677 40.0048C203.145 38.9448 202.232 37.4706 201.938 35.5822L206.655 35.1279C206.869 36.0543 207.323 36.7535 208.018 37.2256C208.713 37.6977 209.617 37.9338 210.73 37.9338C211.879 37.9338 212.801 37.6977 213.496 37.2256C214.2 36.7535 214.551 36.1701 214.551 35.4753C214.551 34.8874 214.324 34.402 213.87 34.019C213.425 33.6359 212.73 33.342 211.786 33.1371L208.285 32.4023C206.316 31.9925 204.86 31.3022 203.916 30.3313C202.972 29.3515 202.504 28.1133 202.513 26.6169C202.504 25.352 202.847 24.2564 203.542 23.33C204.245 22.3948 205.221 21.6733 206.468 21.1655C207.724 20.6489 209.171 20.3906 210.81 20.3906C213.215 20.3906 215.108 20.9028 216.489 21.9271C217.878 22.9515 218.738 24.3366 219.067 26.0824ZM239.717 26.0824L235.308 26.5634C235.183 26.1181 234.965 25.6994 234.653 25.3075C234.35 24.9156 233.941 24.5994 233.424 24.3589C232.907 24.1184 232.275 23.9981 231.527 23.9981C230.52 23.9981 229.674 24.2163 228.988 24.6528C228.311 25.0893 227.977 25.6549 227.986 26.3497C227.977 26.9465 228.195 27.4319 228.641 27.806C229.095 28.1801 229.843 28.4874 230.885 28.7279L234.386 29.4762C236.328 29.8948 237.771 30.5584 238.715 31.467C239.668 32.3755 240.149 33.5647 240.158 35.0344C240.149 36.326 239.771 37.4661 239.022 38.4549C238.283 39.4347 237.254 40.2007 235.936 40.753C234.618 41.3052 233.103 41.5814 231.393 41.5814C228.881 41.5814 226.859 41.0558 225.327 40.0048C223.795 38.9448 222.882 37.4706 222.588 35.5822L227.305 35.1279C227.518 36.0543 227.973 36.7535 228.667 37.2256C229.362 37.6977 230.266 37.9338 231.38 37.9338C232.529 37.9338 233.451 37.6977 234.146 37.2256C234.849 36.7535 235.201 36.1701 235.201 35.4753C235.201 34.8874 234.974 34.402 234.52 34.019C234.074 33.6359 233.379 33.342 232.435 33.1371L228.935 32.4023C226.966 31.9925 225.51 31.3022 224.566 30.3313C223.621 29.3515 223.154 28.1133 223.163 26.6169C223.154 25.352 223.497 24.2564 224.191 23.33C224.895 22.3948 225.87 21.6733 227.118 21.1655C228.373 20.6489 229.821 20.3906 231.46 20.3906C233.865 20.3906 235.758 20.9028 237.138 21.9271C238.528 22.9515 239.388 24.3366 239.717 26.0824ZM250.052 41.5947C248.751 41.5947 247.58 41.3631 246.538 40.9C245.505 40.4279 244.685 39.7331 244.08 38.8156C243.483 37.8982 243.184 36.7669 243.184 35.4219C243.184 34.2639 243.398 33.3064 243.826 32.5492C244.253 31.7921 244.837 31.1864 245.576 30.7321C246.315 30.2778 247.148 29.9349 248.075 29.7033C249.01 29.4628 249.976 29.2891 250.974 29.1822C252.176 29.0575 253.152 28.9462 253.9 28.8482C254.648 28.7413 255.192 28.581 255.53 28.3672C255.877 28.1445 256.051 27.8016 256.051 27.3384V27.2582C256.051 26.2517 255.753 25.4723 255.156 24.92C254.559 24.3678 253.7 24.0916 252.577 24.0916C251.393 24.0916 250.453 24.3499 249.758 24.8666C249.072 25.3832 248.609 25.9934 248.368 26.6971L243.852 26.0557C244.209 24.8087 244.797 23.7665 245.616 22.9292C246.436 22.083 247.438 21.4506 248.622 21.0319C249.807 20.6044 251.116 20.3906 252.55 20.3906C253.539 20.3906 254.523 20.5064 255.503 20.738C256.483 20.9696 257.378 21.3526 258.189 21.887C258.999 22.4126 259.65 23.1296 260.14 24.0382C260.638 24.9467 260.888 26.0824 260.888 27.4453V41.1805H256.238V38.3613H256.078C255.784 38.9314 255.37 39.4659 254.835 39.9647C254.31 40.4546 253.646 40.851 252.844 41.1538C252.052 41.4478 251.121 41.5947 250.052 41.5947ZM251.308 38.0407C252.279 38.0407 253.121 37.8492 253.833 37.4661C254.546 37.0742 255.094 36.5576 255.477 35.9162C255.869 35.2749 256.064 34.5757 256.064 33.8185V31.4002C255.913 31.5249 255.655 31.6407 255.29 31.7476C254.933 31.8545 254.532 31.948 254.087 32.0282C253.642 32.1083 253.201 32.1796 252.764 32.2419C252.328 32.3043 251.949 32.3577 251.629 32.4023C250.907 32.5002 250.261 32.6606 249.691 32.8833C249.121 33.106 248.671 33.4177 248.342 33.8185C248.012 34.2105 247.847 34.7182 247.847 35.3417C247.847 36.2325 248.172 36.905 248.823 37.3593C249.473 37.8135 250.301 38.0407 251.308 38.0407Z" fill="#29235C"/>
</g>
<defs>
<clipPath id="clip0_73_11708">
<rect width="301" height="58.5278" fill="white"/>
</clipPath>
</defs>
</svg>
