<svg width="144" height="28" viewBox="0 0 144 28" fill="none" xmlns="http://www.w3.org/2000/svg">
<g clip-path="url(#clip0_101_12230)">
<path d="M19.4763 0H7.78992C3.48766 0 0 3.5867 0 8.01111V20.0293C0 24.4537 3.48766 28.0404 7.78992 28.0404H19.4763C23.7786 28.0404 27.2662 24.4537 27.2662 20.0293V8.01111C27.2662 3.5867 23.7786 0 19.4763 0Z" fill="white"/>
<path d="M11.6849 18.791V6.00903L14.5044 7.45726C14.8277 7.62401 15.0994 7.87992 15.2893 8.19638C15.4793 8.51284 15.5799 8.87738 15.5799 9.24926V22.0313L12.7604 20.583C12.4371 20.4164 12.1652 20.1605 11.9753 19.8441C11.7853 19.5276 11.6848 19.163 11.6849 18.791ZM9.73822 13.2548C9.73793 12.883 9.63704 12.5186 9.44684 12.2024C9.25664 11.8862 8.98463 11.6306 8.66125 11.4644L5.84326 10.0146V18.791C5.84296 19.163 5.94342 19.5277 6.13338 19.8442C6.32334 20.1607 6.59529 20.4166 6.91872 20.583L9.73822 22.0313V13.2548ZM21.4231 22.0313V15.2584C21.4234 14.8864 21.3229 14.5217 21.133 14.2052C20.943 13.8887 20.6711 13.6328 20.3476 13.4664L17.5281 12.0166V18.791C17.5281 19.1631 17.6289 19.5278 17.8191 19.8443C18.0093 20.1609 18.2815 20.4166 18.6051 20.583L21.4231 22.0313Z" fill="#E8121F"/>
<path d="M34.1889 20V10.1818H36.4006V11.8501H36.5156C36.7202 11.2876 37.0589 10.8487 37.532 10.5334C38.005 10.2138 38.5696 10.054 39.2259 10.054C39.8906 10.054 40.451 10.2159 40.907 10.5398C41.3672 10.8594 41.6911 11.2962 41.8786 11.8501H41.9808C42.1982 11.3047 42.5646 10.87 43.0803 10.5462C43.6001 10.218 44.2159 10.054 44.9276 10.054C45.831 10.054 46.5682 10.3395 47.1392 10.9105C47.7102 11.4815 47.9957 12.3146 47.9957 13.4098V20H45.6754V13.7678C45.6754 13.1584 45.5135 12.7131 45.1896 12.4318C44.8658 12.1463 44.4695 12.0036 44.0007 12.0036C43.4425 12.0036 43.0057 12.1783 42.6903 12.5277C42.3793 12.8729 42.2237 13.3224 42.2237 13.8764V20H39.9545V13.6719C39.9545 13.1648 39.8011 12.7599 39.4943 12.4574C39.1918 12.1548 38.7955 12.0036 38.3054 12.0036C37.973 12.0036 37.6705 12.0888 37.3977 12.2592C37.125 12.4254 36.9077 12.6619 36.7457 12.9688C36.5838 13.2713 36.5028 13.625 36.5028 14.0298V20H34.1889ZM50.3432 20V10.1818H52.6571V20H50.3432ZM51.5066 8.78835C51.1401 8.78835 50.8248 8.6669 50.5605 8.42401C50.2963 8.17685 50.1642 7.88068 50.1642 7.53551C50.1642 7.18608 50.2963 6.88991 50.5605 6.64702C50.8248 6.39986 51.1401 6.27628 51.5066 6.27628C51.8773 6.27628 52.1926 6.39986 52.4526 6.64702C52.7168 6.88991 52.8489 7.18608 52.8489 7.53551C52.8489 7.88068 52.7168 8.17685 52.4526 8.42401C52.1926 8.6669 51.8773 8.78835 51.5066 8.78835ZM57.3505 6.90909V20H55.0366V6.90909H57.3505ZM62.0439 6.90909V20H59.7299V6.90909H62.0439ZM64.4233 20V10.1818H66.7372V20H64.4233ZM65.5866 8.78835C65.2202 8.78835 64.9048 8.6669 64.6406 8.42401C64.3764 8.17685 64.2443 7.88068 64.2443 7.53551C64.2443 7.18608 64.3764 6.88991 64.6406 6.64702C64.9048 6.39986 65.2202 6.27628 65.5866 6.27628C65.9574 6.27628 66.2727 6.39986 66.5327 6.64702C66.7969 6.88991 66.929 7.18608 66.929 7.53551C66.929 7.88068 66.7969 8.17685 66.5327 8.42401C66.2727 8.6669 65.9574 8.78835 65.5866 8.78835ZM75.6909 16.919L75.6845 14.1257H76.0552L79.5836 10.1818H82.2875L77.9473 15.0142H77.4679L75.6909 16.919ZM73.5815 20V6.90909H75.8954V20H73.5815ZM79.7434 20L76.5474 15.532L78.1071 13.902L82.5112 20H79.7434ZM86.6548 20.1982C86.0327 20.1982 85.4723 20.0874 84.9737 19.8658C84.4794 19.6399 84.0874 19.3075 83.7976 18.8686C83.5121 18.4297 83.3693 17.8885 83.3693 17.245C83.3693 16.6911 83.4716 16.233 83.6761 15.8707C83.8807 15.5085 84.1598 15.2188 84.5135 15.0014C84.8672 14.7841 85.2656 14.62 85.7088 14.5092C86.1563 14.3942 86.6186 14.3111 87.0959 14.2599C87.6712 14.2003 88.1378 14.147 88.4957 14.1001C88.8537 14.049 89.1136 13.9723 89.2756 13.87C89.4418 13.7635 89.5249 13.5994 89.5249 13.3778V13.3395C89.5249 12.858 89.3821 12.4851 89.0966 12.2209C88.8111 11.9567 88.3999 11.8246 87.8629 11.8246C87.2962 11.8246 86.8466 11.9482 86.5142 12.1953C86.1861 12.4425 85.9645 12.7344 85.8494 13.071L83.6889 12.7642C83.8594 12.1676 84.1406 11.669 84.5327 11.2685C84.9247 10.8636 85.4041 10.5611 85.9709 10.3608C86.5376 10.1562 87.1641 10.054 87.8501 10.054C88.3232 10.054 88.794 10.1094 89.2628 10.2202C89.7315 10.331 90.1598 10.5142 90.5476 10.7699C90.9354 11.0213 91.2464 11.3643 91.4808 11.799C91.7195 12.2337 91.8388 12.777 91.8388 13.429V20H89.6143V18.6513H89.5376C89.397 18.924 89.1989 19.1797 88.9432 19.4183C88.6918 19.6527 88.3743 19.8423 87.9908 19.9872C87.6115 20.1278 87.1662 20.1982 86.6548 20.1982ZM87.2557 18.4979C87.7202 18.4979 88.1229 18.4062 88.4638 18.223C88.8047 18.0355 89.0668 17.7884 89.25 17.4815C89.4375 17.1747 89.5312 16.8402 89.5312 16.478V15.321C89.4588 15.3807 89.3352 15.4361 89.1605 15.4872C88.9901 15.5384 88.7983 15.5831 88.5852 15.6214C88.3722 15.6598 88.1612 15.6939 87.9524 15.7237C87.7436 15.7536 87.5625 15.7791 87.4091 15.8004C87.0639 15.8473 86.755 15.924 86.4822 16.0305C86.2095 16.1371 85.9943 16.2862 85.8366 16.478C85.679 16.6655 85.6001 16.9084 85.6001 17.2067C85.6001 17.6328 85.7557 17.9545 86.0668 18.1719C86.3778 18.3892 86.7741 18.4979 87.2557 18.4979ZM101.925 12.777L99.8161 13.0071C99.7564 12.794 99.652 12.5938 99.5028 12.4062C99.358 12.2188 99.1619 12.0675 98.9148 11.9524C98.6676 11.8374 98.3651 11.7798 98.0071 11.7798C97.5256 11.7798 97.1207 11.8842 96.7926 12.093C96.4688 12.3018 96.3089 12.5724 96.3132 12.9048C96.3089 13.1903 96.4134 13.4226 96.6264 13.6016C96.8438 13.7805 97.2017 13.9276 97.7003 14.0426L99.375 14.4006C100.304 14.6009 100.994 14.9183 101.446 15.353C101.902 15.7876 102.132 16.3565 102.136 17.0597C102.132 17.6776 101.951 18.223 101.593 18.696C101.239 19.1648 100.747 19.5312 100.116 19.7955C99.4858 20.0597 98.7614 20.1918 97.9432 20.1918C96.7415 20.1918 95.7741 19.9403 95.0412 19.4375C94.3082 18.9304 93.8714 18.2251 93.7308 17.3217L95.9872 17.1044C96.0895 17.5476 96.3068 17.8821 96.6392 18.108C96.9716 18.3338 97.4041 18.4467 97.9368 18.4467C98.4865 18.4467 98.9276 18.3338 99.2599 18.108C99.5966 17.8821 99.7649 17.603 99.7649 17.2706C99.7649 16.9893 99.6563 16.7571 99.4389 16.5739C99.2259 16.3906 98.8935 16.25 98.4418 16.152L96.767 15.8004C95.8253 15.6044 95.1286 15.2741 94.6768 14.8097C94.2251 14.3409 94.0014 13.7486 94.0057 13.0327C94.0014 12.4276 94.1655 11.9034 94.4979 11.4602C94.8345 11.0128 95.3011 10.6676 95.8977 10.4247C96.4986 10.1776 97.1911 10.054 97.9751 10.054C99.1257 10.054 100.031 10.299 100.692 10.7891C101.357 11.2791 101.768 11.9418 101.925 12.777ZM111.804 12.777L109.695 13.0071C109.635 12.794 109.531 12.5938 109.382 12.4062C109.237 12.2188 109.041 12.0675 108.794 11.9524C108.547 11.8374 108.244 11.7798 107.886 11.7798C107.404 11.7798 107 11.8842 106.672 12.093C106.348 12.3018 106.188 12.5724 106.192 12.9048C106.188 13.1903 106.292 13.4226 106.505 13.6016C106.723 13.7805 107.081 13.9276 107.579 14.0426L109.254 14.4006C110.183 14.6009 110.873 14.9183 111.325 15.353C111.781 15.7876 112.011 16.3565 112.015 17.0597C112.011 17.6776 111.83 18.223 111.472 18.696C111.118 19.1648 110.626 19.5312 109.995 19.7955C109.365 20.0597 108.64 20.1918 107.822 20.1918C106.62 20.1918 105.653 19.9403 104.92 19.4375C104.187 18.9304 103.75 18.2251 103.61 17.3217L105.866 17.1044C105.968 17.5476 106.186 17.8821 106.518 18.108C106.85 18.3338 107.283 18.4467 107.816 18.4467C108.365 18.4467 108.806 18.3338 109.139 18.108C109.475 17.8821 109.644 17.603 109.644 17.2706C109.644 16.9893 109.535 16.7571 109.318 16.5739C109.105 16.3906 108.772 16.25 108.321 16.152L106.646 15.8004C105.704 15.6044 105.007 15.2741 104.556 14.8097C104.104 14.3409 103.88 13.7486 103.885 13.0327C103.88 12.4276 104.044 11.9034 104.377 11.4602C104.713 11.0128 105.18 10.6676 105.777 10.4247C106.377 10.1776 107.07 10.054 107.854 10.054C109.005 10.054 109.91 10.299 110.571 10.7891C111.235 11.2791 111.647 11.9418 111.804 12.777ZM116.749 20.1982C116.126 20.1982 115.566 20.0874 115.067 19.8658C114.573 19.6399 114.181 19.3075 113.891 18.8686C113.606 18.4297 113.463 17.8885 113.463 17.245C113.463 16.6911 113.565 16.233 113.77 15.8707C113.974 15.5085 114.254 15.2188 114.607 15.0014C114.961 14.7841 115.359 14.62 115.803 14.5092C116.25 14.3942 116.712 14.3111 117.19 14.2599C117.765 14.2003 118.232 14.147 118.589 14.1001C118.947 14.049 119.207 13.9723 119.369 13.87C119.536 13.7635 119.619 13.5994 119.619 13.3778V13.3395C119.619 12.858 119.476 12.4851 119.19 12.2209C118.905 11.9567 118.494 11.8246 117.957 11.8246C117.39 11.8246 116.94 11.9482 116.608 12.1953C116.28 12.4425 116.058 12.7344 115.943 13.071L113.783 12.7642C113.953 12.1676 114.234 11.669 114.626 11.2685C115.018 10.8636 115.498 10.5611 116.065 10.3608C116.631 10.1562 117.258 10.054 117.944 10.054C118.417 10.054 118.888 10.1094 119.357 10.2202C119.825 10.331 120.254 10.5142 120.641 10.7699C121.029 11.0213 121.34 11.3643 121.575 11.799C121.813 12.2337 121.933 12.777 121.933 13.429V20H119.708V18.6513H119.631C119.491 18.924 119.293 19.1797 119.037 19.4183C118.786 19.6527 118.468 19.8423 118.085 19.9872C117.705 20.1278 117.26 20.1982 116.749 20.1982ZM117.349 18.4979C117.814 18.4979 118.217 18.4062 118.558 18.223C118.898 18.0355 119.161 17.7884 119.344 17.4815C119.531 17.1747 119.625 16.8402 119.625 16.478V15.321C119.553 15.3807 119.429 15.4361 119.254 15.4872C119.084 15.5384 118.892 15.5831 118.679 15.6214C118.466 15.6598 118.255 15.6939 118.046 15.7237C117.837 15.7536 117.656 15.7791 117.503 15.8004C117.158 15.8473 116.849 15.924 116.576 16.0305C116.303 16.1371 116.088 16.2862 115.93 16.478C115.773 16.6655 115.694 16.9084 115.694 17.2067C115.694 17.6328 115.849 17.9545 116.161 18.1719C116.472 18.3892 116.868 18.4979 117.349 18.4979Z" fill="white"/>
</g>
<defs>
<clipPath id="clip0_101_12230">
<rect width="144" height="28" fill="white"/>
</clipPath>
</defs>
</svg>
